HIERARCHY
ROOT Hips
{
  OFFSET 0 0 0
  CHANNELS 6 Xposition Yposition Zposition Zrotation Yrotation Xrotation
  JOINT LeftThigh
  {
    OFFSET 8.409438 0 -5.917753
    CHANNELS 3 Zrotation Yrotation Xrotation
    JOINT LeftLeg
    {
      OFFSET 0 0 -42.358652
      CHANNELS 3 Zrotation Yrotation Xrotation
      JOINT LeftFoot
      {
        OFFSET 0 0 -39.357303
        CHANNELS 3 Zrotation Yrotation Xrotation
      }
    }
  }
  JOINT RightThigh
  {
    OFFSET -8.409438 0 -5.917753
    CHANNELS 3 Zrotation Yrotation Xrotation
    JOINT RightLeg
    {
      OFFSET 0 0 -42.358652
      CHANNELS 3 Zrotation Yrotation Xrotation
      JOINT RightFoot
      {
        OFFSET 0 0 -39.357303
        CHANNELS 3 Zrotation Yrotation Xrotation
      }
    }
  }
  JOINT SpineLow
  {
    OFFSET 0 0 4.719101
    CHANNELS 3 Zrotation Yrotation Xrotation
    JOINT SpineMid
    {
      OFFSET 0 0 12.899191
      CHANNELS 3 Zrotation Yrotation Xrotation
      JOINT Chest
      {
        OFFSET 0 0 12.899191
        CHANNELS 3 Zrotation Yrotation Xrotation
        JOINT LeftShoulder
        {
          OFFSET 7.550562 1.41573 9.438202
          CHANNELS 3 Zrotation Yrotation Xrotation
          JOINT LeftArm
          {
            OFFSET 9.155056 0 4.247191
            CHANNELS 3 Zrotation Yrotation Xrotation
            JOINT LeftForearm
            {
              OFFSET 0 0 25.771955
              CHANNELS 3 Zrotation Yrotation Xrotation
              JOINT LeftHand
              {
                OFFSET 0 0 25.197169
                CHANNELS 3 Zrotation Yrotation Xrotation
              }
            }
          }
        }
        JOINT RightShoulder
        {
          OFFSET -7.550562 1.41573 9.438202
          CHANNELS 3 Zrotation Yrotation Xrotation
          JOINT RightArm
          {
            OFFSET -9.155056 0 4.247191
            CHANNELS 3 Zrotation Yrotation Xrotation
            JOINT RightForearm
            {
              OFFSET 0 0 -25.771955
              CHANNELS 3 Zrotation Yrotation Xrotation
              JOINT RightHand
              {
                OFFSET 0 0 -25.197169
                CHANNELS 3 Zrotation Yrotation Xrotation
              }
            }
          }
        }
        JOINT Neck
        {
          OFFSET 0 0 15.101124
          CHANNELS 3 Zrotation Yrotation Xrotation
          JOINT Head
          {
            OFFSET 0 0 11.325843
            CHANNELS 3 Zrotation Yrotation Xrotation
            End Site
            {
              OFFSET 0 0 14.157303
            }
          }
        }
      }
    }
  }
}
MOTION
Frames: 13
Frame Time: 0.0
0.0  89.887642  0.0  0.575935  18.824504  -119.394397  7.347064  -6.905684  2.496795  -19.742609  18.219313  36.270649  -2.977479  -0.319765  2.301749  5.065784  -3.298157  -59.992717  2.591142  16.157962  25.858002  3.145134  -3.597409  -1.859857  -1.390145  -0.878452  4.218385  -3.940784  -2.149854  11.580475  -3.940784  -2.149854  11.580475  -20.582853  29.132231  11.036291  132.838447  37.141297  -157.771876  -13.049139  3.77352  85.545346  72.554598  -17.690039  35.787874  -2.574224  6.80519  32.799557  15.576287  59.794778  -53.8182  -22.666296  -6.821682  -67.775517  85.755226  9.453205  -12.746501  -26.281446  0.301294  -1.254546  -19.710522  0.280597  -0.929982  
0.0  89.887642  0.0  0.516546  21.180793  -119.718365  4.978188  -5.51225  3.571866  -19.120407  17.264188  35.543905  -3.288661  -0.389721  2.34717  2.724471  0.200837  -53.150387  -0.624256  12.896158  7.709686  2.90161  -4.603976  -2.425065  -1.48497  -0.89244  4.12222  -4.198743  -2.177562  11.321428  -4.198743  -2.177562  11.321428  -22.096619  29.759323  11.457614  133.146763  37.060845  -157.714634  -12.795367  3.264579  85.959144  71.945336  -17.233653  36.308696  -3.990952  7.578954  33.187389  14.741621  58.958051  -53.983821  -22.511466  -7.254879  -67.523692  86.186761  9.410612  -13.537486  -27.525974  0.510807  -0.814158  -20.643709  0.420834  -0.589001  
0.0  89.887642  0.0  0.032069  24.222867  -119.999996  1.863837  -3.817799  4.387249  -18.201447  16.167426  35.034849  -3.754786  -0.528895  2.405221  1.859002  7.085524  -51.060976  -6.451519  8.568848  -3.031017  3.340248  -5.879766  -1.896061  -1.925253  -0.890379  3.997763  -5.394625  -2.106725  10.993894  -5.394626  -2.106725  10.993895  -22.233264  30.309663  11.159149  133.876559  36.422422  -157.793791  -11.908208  1.836425  86.380533  70.632499  -16.928104  36.842192  -3.828  8.388627  33.051366  14.965055  58.133699  -52.50528  -22.354973  -7.65859  -67.378803  86.851858  8.993903  -14.368219  -27.961081  0.76085  -0.371258  -20.970049  0.589111  -0.244193  
0.0  89.887642  0.0  -0.190657  26.537058  -120.242993  -0.232119  -2.244786  5.101305  -16.976159  15.087903  34.829927  -4.385552  -0.562627  2.519692  11.96644  26.180248  -53.917538  -24.588432  5.396557  -2.551028  -0.231079  -6.565986  -0.343092  -2.222274  -0.856255  3.909842  -6.19607  -1.972665  10.758459  -6.19607  -1.972665  10.758459  -22.358106  30.684204  10.378681  133.907008  35.968514  -158.535921  -11.044546  -0.437861  86.589689  68.601082  -17.172794  36.42559  -3.847313  8.980164  31.997169  16.963566  57.244932  -49.0082  -22.402342  -7.822715  -67.33789  87.64175  8.257363  -15.021604  -28.407927  0.867588  0.081425  -21.305653  0.648569  0.101711  
0.0  89.887642  0.0  0.49247  26.108825  -120.269438  1.54737  -2.105693  5.955807  -16.376175  14.637656  34.737079  -5.480715  -0.598685  2.514154  15.858734  35.923266  -54.730969  -40.389624  4.453365  -2.685568  1.042912  -8.414324  1.277274  -1.936578  -0.807507  3.963975  -5.410617  -1.882026  10.894565  -5.410617  -1.882026  10.894564  -23.029  30.367649  9.408113  132.320181  35.856064  -159.208143  -11.229107  -2.758343  85.764288  66.44815  -17.868769  35.100681  -4.673193  8.903055  30.055805  19.729271  56.388752  -44.608774  -22.618122  -7.802647  -67.380027  88.589815  7.557832  -15.091518  -29.184528  0.598612  0.402427  -21.888598  0.430886  0.331342  
0.0  89.887642  0.0  1.040087  24.343059  -120.684511  5.409309  -4.166714  7.3593  -17.834635  15.507982  34.114311  -6.416914  -0.585736  2.175683  14.581661  32.235975  -57.779747  -42.523515  6.003741  -3.026267  3.183721  -7.367409  2.34859  -1.364619  -0.862791  4.117504  -3.865501  -2.117736  11.302974  -3.865502  -2.117736  11.302974  -23.981952  29.860754  8.872027  131.923482  36.180765  -159.769118  -11.919032  -2.546725  85.877707  65.643258  -18.224663  34.518785  -5.936161  8.859916  28.487809  21.709323  55.568755  -41.287142  -23.067542  -7.318999  -67.331837  89.193646  7.501462  -14.994434  -30.243059  0.224119  0.497402  -22.682465  0.143859  0.385281  
0.0  89.887642  0.0  1.032268  23.272775  -121.424135  7.643823  -6.365264  8.270144  -20.564949  17.110371  33.628396  -6.007642  -0.348058  1.806052  10.318035  23.974805  -60.547768  -35.84851  9.155719  0.040609  6.038509  -6.927434  2.096921  -1.039835  -0.97769  4.195793  -3.0031  -2.482511  11.513438  -3.0031  -2.482511  11.513437  -24.031916  29.719087  9.140584  131.823713  36.730244  -159.956173  -13.219755  -0.96499  86.537787  66.245272  -18.134339  33.715404  -6.267829  9.649508  28.555299  21.822204  54.761572  -40.544925  -23.466917  -6.735488  -67.144354  89.175683  7.745212  -15.123567  -30.957633  0.221915  0.507832  -23.218399  0.141105  0.393333  
0.0  89.887642  0.0  1.305686  22.965428  -121.362655  5.855712  -5.650076  7.324771  -19.908303  17.980872  34.76454  -4.569891  0.003183  2.007243  4.228897  12.300896  -65.70852  -20.19926  13.192613  7.544566  5.560094  -7.281818  2.016056  -1.136755  -0.993526  4.283902  -3.273136  -2.504227  11.758606  -3.273136  -2.504228  11.758607  -22.94219  29.550145  8.281813  132.285972  37.044056  -159.921484  -13.171419  0.591934  87.416849  67.22515  -18.033141  31.872853  -5.376628  10.658993  27.916167  22.179398  54.511386  -40.42949  -23.717336  -6.441871  -66.833637  88.762059  7.964608  -15.594012  -30.574042  0.17669  -0.164236  -22.930468  0.141166  -0.114666  
0.0  89.887642  0.0  1.333509  23.567071  -122.201538  1.823891  -2.758605  7.624215  -17.382296  17.087527  36.022133  -3.143635  0.201724  2.575976  -1.727429  0.727794  -72.011965  -2.671334  15.082649  20.782199  1.710506  -6.535912  3.035832  -1.434565  -0.950352  4.34753  -4.078775  -2.329636  11.939742  -4.078775  -2.329636  11.939742  -21.531654  29.76816  8.176491  133.134963  37.104398  -159.519343  -12.7356  1.515321  87.737358  67.578236  -17.981924  31.007194  -4.460256  11.545153  28.126078  22.773642  54.842921  -40.501606  -23.773895  -6.902789  -66.511019  88.579656  8.159607  -15.982535  -30.137101  0.586096  -0.612385  -22.602069  0.471178  -0.431589  
0.0  89.887642  0.0  0.946131  23.51861  -123.056149  0.850191  -1.346743  8.022608  -15.837579  16.034241  37.596603  -2.832107  -0.417818  2.801396  -4.843972  -8.881343  -79.83419  9.794959  15.999987  36.160646  0.359485  -5.648258  3.586626  -1.466692  -0.994949  4.242985  -4.170913  -2.451987  11.658223  -4.170913  -2.451987  11.658224  -21.347127  30.62679  9.176352  134.253495  37.528178  -158.873325  -12.337962  1.350128  87.403409  67.520731  -18.069066  31.107313  -4.619632  11.497799  29.058561  23.311723  55.869721  -40.031037  -23.740756  -7.766044  -66.320252  88.912592  8.267411  -16.171202  -30.341891  1.351469  -0.42775  -22.754428  1.037913  -0.254339  
0.0  89.887642  0.0  0.564295  22.921461  -123.6463  3.661585  -2.233531  8.823805  -16.233282  14.848436  38.558128  -4.716179  -1.086067  2.737538  -5.158759  -13.316675  -81.660107  14.035614  19.155939  45.698245  1.95384  -4.431859  4.137858  -1.390303  -1.047292  4.123295  -3.967764  -2.615373  11.332075  -3.967764  -2.615373  11.332076  -21.705672  31.724862  10.115537  135.184387  38.230725  -158.418696  -12.007888  0.711845  87.09187  67.736075  -18.093786  31.120769  -5.168159  10.825542  29.931708  23.620839  57.132766  -39.614545  -23.533161  -8.173666  -66.227907  89.671557  8.150123  -16.221213  -30.59367  1.964569  -0.011579  -22.942955  1.478416  0.090109  
0.0  89.887642  0.0  0.444549  22.147402  -123.883378  5.876424  -3.770083  9.581736  -16.027473  14.218276  38.679683  -7.229257  -1.49309  2.638976  -4.549068  -16.637449  -79.127048  16.501081  23.87544  52.021838  4.99112  -3.067133  3.38967  -1.405182  -1.040736  3.985516  -4.002125  -2.60355  10.955553  -4.002125  -2.60355  10.955553  -21.585498  32.609513  10.308011  135.722356  38.280507  -158.473829  -11.812434  -0.159999  86.894238  67.737503  -18.390785  30.875012  -5.097994  10.196302  30.885579  23.93109  58.070712  -39.364448  -23.307077  -7.653995  -66.233955  90.379842  7.815687  -16.42618  -30.336823  2.374546  0.597702  -22.751682  1.756353  0.567979  
0.0  89.887642  0.0  0.535686  21.305134  -123.727623  5.103578  -4.027516  9.866307  -14.267171  14.054972  38.546964  -8.024354  -1.3284  2.550358  -0.549789  -15.26051  -79.890244  17.977781  28.080642  61.498537  6.937636  -2.423251  3.146885  -1.45771  -0.93571  3.89806  -4.12478  -2.314389  10.711004  -4.12478  -2.314389  10.711005  -21.048039  32.917755  10.385367  135.931508  38.367064  -158.512394  -11.798301  -1.142808  86.701189  67.126723  -18.89407  30.617172  -4.70089  9.534841  31.369359  24.729882  58.286403  -38.852  -23.128708  -6.533377  -66.515673  90.685097  7.439997  -16.859531  -29.795061  2.220154  1.317711  -22.348381  1.605342  1.099707  
